<svg width="126" height="146" viewBox="0 0 126 146" fill="none" xmlns="http://www.w3.org/2000/svg">
<path d="M22.48 52.3002L99.6265 52.3003C105.149 52.3003 109.626 56.7775 109.626 62.3003V67.2623L109.626 119.562C109.626 125.085 105.149 129.562 99.6264 129.562L22.48 129.562C16.9571 129.562 12.48 125.085 12.48 119.562V67.2622V62.3002C12.48 56.7774 16.9571 52.3002 22.48 52.3002Z" fill="#570B36"/>
<path d="M13.9878 63.2785V58.3165C13.9878 52.7937 18.465 48.3165 23.9878 48.3165L101.134 48.3166C106.657 48.3166 111.134 52.7938 111.134 58.3166V63.2786M13.9878 63.2785V115.578C13.9878 121.101 18.4649 125.578 23.9878 125.578L101.134 125.578C106.657 125.578 111.134 121.101 111.134 115.578L111.134 63.2786M13.9878 63.2785L111.134 63.2786" stroke="#F8FAF4" stroke-linecap="round" stroke-linejoin="round"/>
<path d="M62.8956 53.3595C61.4802 48.6192 58.695 34.7935 63.4777 33.1832C68.2603 31.5729 68.5158 45.1135 74.1441 51.4202C77.4923 55.1721 77.1635 62.6097 80.5514 65.6592C82.1931 67.1369 84.253 68.5046 86.5368 69.7256L110.661 77.252L110.661 102.185L83.6987 92.7872C75.995 90.297 68.3674 87.3534 62.8659 84.6966C48.4889 82.7108 39.8138 70.0705 39.8138 70.0705C39.8138 70.0705 13.9223 36.188 19.7007 33.5502C21.5281 32.716 24.2207 34.7406 27.0955 37.865C23.3964 28.5032 21.7244 20.693 24.7178 19.9858C27.2004 19.3992 30.1028 23.971 33.5347 30.1973C31.4695 22.4517 31.2396 16.4094 33.9355 16.1027C35.8181 15.8886 37.5554 19.0911 39.5663 23.8652C38.7453 18.8549 39.1169 15.3747 41.1461 15.1438C46.4399 14.5416 50.5853 40.9582 62.8956 53.3595Z" fill="#EFBCFE"/>
<path d="M62.8979 53.36C61.5064 56.4139 61.2437 58.9809 62.1928 62.2026M40.0062 14.9844C37.977 15.2152 38.7476 18.8554 39.5686 23.8657C40.8894 31.9264 44.8621 43.4076 50.4199 52.2286M32.62 15.8675C29.924 16.1742 31.4718 22.4522 33.537 30.1978C35.5272 37.6619 39.5454 47.6674 43.9682 54.6869M23.5481 19.4805C20.5547 20.1878 23.3987 28.5037 27.0978 37.8655C28.0841 40.3617 29.322 43.1119 30.6862 45.9104M38.7983 60.6918C37.2676 58.2161 35.6102 55.3419 33.9892 52.3371M18.4895 33.2095C12.7112 35.8473 39.8162 70.071 39.8162 70.071M35.2629 60.5363C41.5268 55.5491 45.3946 53.4408 52.9918 51.0331M30.6862 45.9104C31.7317 48.0552 32.8515 50.2283 33.9892 52.3371M30.6862 45.9104L33.9892 52.3371" stroke="#570B36" stroke-linecap="round" stroke-linejoin="round"/>
<path d="M56.9068 20.1407L60.8497 6.61003M71.2125 23.3954L79.6628 12.6136M78.765 35.3571L93.9359 30.5118" stroke="#F8FAF4" stroke-linecap="round"/>
<path d="M66.2133 90.7183C64.0625 105.361 52.0665 133.299 50.0172 140.176L16.8971 140.19C22.8236 130.82 27.9877 123.644 31.0029 117.273C35.1029 108.61 35.2294 101.436 27.8956 92.256C15.1688 76.3252 0.0987153 68.1517 4.73271 66.381C9.3667 64.6103 11.907 68.189 17.2521 72.1103C7.07451 61.6537 -4.18653 54.2722 1.6464 50.0967C4.89654 47.7701 9.83637 50.1357 15.0329 55.0825C11.0674 49.5704 8.82463 45.3474 10.9445 44.2668C12.6349 43.4051 15.8155 45.5403 19.5793 49.1466C18.1032 45.4583 18.3841 44.8406 20.2892 44.0985C28.1615 41.032 46.8221 82.2307 53.5182 78.9085C60.2142 75.5863 44.3005 59.7524 49.6917 57.9047C55.083 56.0569 68.3641 76.0755 66.2133 90.7183Z" fill="#8D1A5F"/>
<path d="M49.0414 144.755C49.0414 144.755 55.5382 124.768 60.575 109.112C62.2376 103.944 66.5954 94.6753 66.4417 89.8802M52.7099 77.5384C45.9226 80.9059 28.5731 41.1497 20.5935 44.258C18.6624 45.0103 17.8043 47.1611 20.4136 51.5001C23.023 55.839 36.8228 75.094 36.8228 75.094M10.463 43.2473C8.1567 44.423 10.4071 49.6744 15.033 56.6839C15.033 56.6839 18.1823 60.7386 22.0889 65.7217C27.998 73.259 33.13 79.2556 33.13 79.2556M2.87527 51.3101C-0.426373 53.3708 1.70012 56.5459 12.0165 67.1451C17.4374 72.7145 23.3449 78.5023 28.275 83.4994M4.45572 65.652C-0.938302 68.4812 18.9246 79.0985 27.5551 92.3012C36.1855 105.504 38.6562 108.157 22.1039 132.517" stroke="#F8FAF4" stroke-linecap="round" stroke-linejoin="round"/>
<path d="M75.812 112.261C75.812 109.5 78.0506 107.261 80.812 107.261L117.019 107.261C119.78 107.261 122.019 109.5 122.019 112.261V112.556L122.019 129.601C122.019 132.362 119.78 134.601 117.019 134.601L80.812 134.601C78.0506 134.601 75.812 132.362 75.812 129.601V112.556V112.261Z" fill="#3BECB9"/>
<path d="M78.5054 114.738V131.783C78.5054 134.544 80.7439 136.783 83.5054 136.783L119.712 136.783C122.474 136.783 124.712 134.544 124.712 131.783L124.712 114.738M78.5054 114.738V114.444C78.5054 111.682 80.7439 109.444 83.5054 109.444L119.712 109.444C122.474 109.444 124.712 111.682 124.712 114.444V114.738M78.5054 114.738L124.712 114.738" stroke="#F8FAF4" stroke-linecap="round" stroke-linejoin="round"/>
</svg>
