<svg width="120" height="156" viewBox="0 0 120 156" fill="none" xmlns="http://www.w3.org/2000/svg">
<path d="M89.1255 117.592C96.1112 117.592 102.026 121.973 104.024 128.016C105.024 128.145 106.04 128.342 107.063 128.61C112.682 130.087 117.042 133.358 118.836 136.981H62.3364C62.3364 133.59 67.1666 130.731 73.7503 129.862C75.0612 122.886 81.4463 117.592 89.1255 117.592Z" fill="#570B36"/>
<rect x="61.1475" y="55.3146" width="51.8606" height="85.07" rx="8" transform="rotate(30 61.1475 55.3146)" fill="#570B36"/>
<path d="M102.681 87.3031L66.583 149.826C64.8053 152.905 60.8682 153.96 57.7892 152.182L24.0267 132.689C20.9921 130.937 17.3724 125.434 20.2113 120.225M99.4943 74.5511C99.5546 74.5857 99.6143 74.6202 99.6734 74.6548M20.3402 119.996C20.2958 120.072 20.2529 120.149 20.2113 120.225M65.3763 54.8176C62.2973 53.04 58.3602 54.0949 56.5825 57.1739L49.9487 68.6641L33.0609 97.9146L20.485 119.697C20.3848 119.87 20.2936 120.046 20.2113 120.225M20.2113 120.225C18.8327 123.213 19.9358 126.813 22.8413 128.49L58.6945 149.19C60.6188 150.301 63.0795 149.642 64.1906 147.718L101.495 83.1042C103.166 80.2108 102.335 76.5596 99.6734 74.6548M99.6734 74.6548C99.5027 74.5326 99.3244 74.4176 99.1388 74.3104L73.0212 59.2314" stroke="#F8FAF4" stroke-linecap="round" stroke-linejoin="round"/>
<path d="M22.8411 128.49L58.6943 149.19L59.3749 149.583C61.4127 150.76 61.0345 153.465 58.8222 152.663C58.4702 152.536 58.1246 152.376 57.7891 152.182L24.0266 132.689C20.992 130.937 17.3722 125.434 20.2111 120.225C18.8325 123.213 19.9357 126.813 22.8411 128.49Z" fill="#F8FAF4"/>
<path d="M20.34 119.996C20.2957 120.072 20.2527 120.149 20.2111 120.225M20.4849 119.697C20.3847 119.87 20.2935 120.046 20.2111 120.225M20.2111 120.225C18.8325 123.213 19.9357 126.813 22.8411 128.49L58.6943 149.19L59.3749 149.583C61.4127 150.76 61.0345 153.465 58.8222 152.663C58.4702 152.536 58.1246 152.376 57.7891 152.182L24.0266 132.689C20.992 130.937 17.3722 125.434 20.2111 120.225Z" stroke="#F8FAF4" stroke-linecap="round" stroke-linejoin="round"/>
<path d="M74.3501 66.5731L85.0034 72.7237" stroke="#F8FAF4" stroke-linecap="round" stroke-linejoin="round"/>
<path d="M25.0308 111.443V63.6568" stroke="#F8FAF4" stroke-linecap="round"/>
<path d="M102.295 77.8028L102.295 42.5023" stroke="#F8FAF4" stroke-linecap="round"/>
<path d="M61.584 149.644L61.584 89.9755" stroke="#F8FAF4" stroke-linecap="round"/>
<path d="M65.5762 54.8073L65.5762 13.7856" stroke="#F8FAF4" stroke-linecap="round"/>
<path d="M118.032 34.1737C118.446 41.9533 110.713 54.1522 102.934 54.5657C95.1541 54.9793 88.2871 44.7732 87.8735 36.9936C87.4599 29.2139 92.2924 22.8315 100.098 20.601C107.904 18.3705 117.619 26.394 118.032 34.1737Z" fill="#8D1A5F" stroke="#F8FAF4"/>
<path d="M102.295 26.7932L104.616 33.0005L111.237 33.2898L106.051 37.4154L107.821 43.8015L102.295 40.144L96.7687 43.8015L98.5395 37.4154L93.3532 33.2898L99.974 33.0005L102.295 26.7932Z" stroke="#F8FAF4" stroke-linecap="round" stroke-linejoin="round"/>
<path d="M46.5993 91.6264C46.1858 99.406 53.918 111.605 61.6977 112.018C69.4774 112.432 76.3444 102.226 76.758 94.4463C77.1715 86.6666 73.2487 79.6091 65.4427 77.3786C57.6368 75.1481 47.0129 83.8467 46.5993 91.6264Z" fill="#EFBCFE"/>
<path d="M50.5935 15.4365C50.1799 23.2162 57.9122 35.415 65.6918 35.8286C73.4715 36.2422 80.3385 26.0361 80.7521 18.2565C81.1657 10.4768 77.2428 3.4193 69.4369 1.1888C61.6309 -1.0417 51.007 7.65688 50.5935 15.4365Z" fill="#570B36"/>
<path d="M62.3349 84.2458L60.0138 90.4531L53.3931 90.7424L58.5793 94.8681L56.8085 101.254L62.3349 97.5966L67.8612 101.254L66.0904 94.8681L71.2767 90.7424L64.6559 90.4531L62.3349 84.2458Z" stroke="#570B36" stroke-linecap="round" stroke-linejoin="round"/>
<path d="M66.329 8.05603L64.0079 14.2633L57.3872 14.5526L62.5735 18.6782L60.8027 25.0643L66.329 21.4068L71.8553 25.0643L70.0846 18.6782L75.2708 14.5526L68.6501 14.2633L66.329 8.05603Z" stroke="#F8FAF4" stroke-linecap="round" stroke-linejoin="round"/>
<path d="M2.40875 47.8949C0.596268 61.7178 11.6516 81.0345 23.8827 79.6095C35.1584 80.2089 45.5207 63.2578 46.1201 51.9821C46.7195 40.7064 39.7155 31.4559 28.4017 28.223C17.0879 24.9902 3.00817 36.6192 2.40875 47.8949Z" fill="#3BECB9"/>
<path d="M24.1759 37.7831L27.7399 47.3144L37.906 47.7586L29.9426 54.0934L32.6616 63.8993L24.1759 58.2831L15.6903 63.8993L18.4093 54.0934L10.4458 47.7586L20.6119 47.3144L24.1759 37.7831Z" stroke="#570B36" stroke-linecap="round" stroke-linejoin="round"/>
</svg>
