<svg width="132" height="144" viewBox="0 0 132 144" fill="none" xmlns="http://www.w3.org/2000/svg">
<circle cx="46.8885" cy="111.084" r="5.18829" fill="#570B36"/>
<circle cx="23.5135" cy="127.193" r="5.18829" fill="#570B36"/>
<path d="M17.1477 37.6763C17.7575 39.9977 17.0623 42.2047 15.5927 42.6979C15.552 42.7115 15.5236 42.7078 15.4818 42.7187C13.928 43.1269 12.1604 41.5239 11.5337 39.1383C10.907 36.7527 11.6458 34.504 13.1996 34.0958C14.7534 33.6876 16.521 35.2907 17.1477 37.6763Z" fill="#570B36"/>
<path d="M13.1996 34.0958C14.7534 33.6876 16.521 35.2907 17.1477 37.6763C17.7575 39.9977 17.0623 42.2047 15.5927 42.6979L43.6874 34.305L43.8257 34.2628C45.3795 33.8546 46.1311 31.5898 45.5044 29.2042C44.8777 26.8186 42.8435 25.2962 41.2897 25.7044L13.1996 34.0958Z" fill="#570B36"/>
<path d="M16.9544 43.9275C15.4006 44.3356 13.633 42.7326 13.0063 40.347C12.3796 37.9614 13.1185 35.7126 14.6723 35.3045L42.7624 26.9131C44.3161 26.5049 46.3504 28.0273 46.977 30.4129C47.6037 32.7985 46.8522 35.0633 45.2984 35.4715L45.16 35.5137L17.0653 43.9066M16.9544 43.9275L17.0653 43.9066M16.9544 43.9275C16.9962 43.9165 17.0247 43.9203 17.0653 43.9066" stroke="#F8FAF4" stroke-linecap="round" stroke-linejoin="round"/>
<path d="M57.5109 35.5032L14.0005 49.4393L12.4608 48.1782C10.008 46.1692 10.7558 42.2414 13.7752 41.2743L15.7273 40.649M57.5109 35.5032V35.5032C56.4867 31.6474 52.5848 29.3026 48.6995 30.208L47.3274 30.5277M57.5109 35.5032L121.432 72.608L110.163 98.375M57.5109 35.5032L57.5109 67.2933" stroke="#F8FAF4" stroke-linecap="round" stroke-linejoin="round"/>
<circle cx="97.2752" cy="116.817" r="5.18829" fill="#570B36"/>
<path d="M18.5633 95.8384L17.3886 101.032C15.6518 108.711 20.5861 116.312 28.3071 117.851L82.6729 128.687C89.6395 130.075 96.8357 127.848 101.8 122.766L106.141 118.322C109.221 115.169 107.964 109.883 103.795 108.453L96.1465 105.831M19.3934 112.075L37.7575 100.166" stroke="#F8FAF4" stroke-linecap="round" stroke-linejoin="round"/>
<circle cx="78.7049" cy="138.046" r="5.18829" fill="#570B36"/>
<path d="M109.434 15.4017C109.764 19.6581 109.262 23.5713 107.066 26.6306C104.879 29.6765 100.941 31.9753 94.1768 32.8498C85.8976 33.4834 78.6497 26.0847 77.9994 17.6945C77.3567 9.40174 83.4639 3.30472 91.8491 2.65479C100.293 2.00029 108.795 7.1593 109.434 15.4017Z" stroke="#F8FAF4"/>
<path d="M74.9256 32.7474C72.8436 19.2532 62.5341 6.9145 48.8612 7.42622C38.7688 7.80394 29.2175 13.4365 25.7955 22.6679C24.5815 25.9428 23.6293 30.976 23.7633 34.5564C24.275 48.2293 37.5247 59.658 51.1976 59.1463C64.8704 58.6346 77.0075 46.2417 74.9256 32.7474Z" fill="#3BECB9"/>
<path d="M60.7372 33.0637L60.7681 33.0471C61.8459 32.4697 61.8476 30.9281 60.7765 30.3461L43.1038 22.6597L43.0863 22.6521L43.0693 22.6431C41.982 22.0676 40.6924 22.9389 40.8212 24.1619L60.7372 33.0637ZM60.7372 33.0637L60.7089 33.0844L45.0802 44.5225C44.1238 45.0127 42.9698 44.3933 42.854 43.3157L40.8212 24.1622L60.7372 33.0637Z" stroke="#570B36"/>
<path d="M107.446 71.8317C115.293 66.4523 117.293 55.7303 111.914 47.8833C106.534 40.0363 96.0842 36.1038 88.2373 41.4832L54.0323 66.6776C46.1854 72.057 42.0713 81.2831 47.4506 89.13C52.83 96.977 65.6659 100.473 73.5128 95.094L87.8335 85.2766L107.446 71.8317Z" fill="#EFBCFE"/>
<path d="M81.3794 106.569L73.5128 95.094L87.8335 85.2766L81.3794 106.569Z" fill="#EFBCFE"/>
<path fill-rule="evenodd" clip-rule="evenodd" d="M98.7713 17.4986C99.0355 17.2985 99.0019 16.8831 98.6973 16.7314L93.4087 14.1122L90.0027 12.4189C89.6703 12.2501 89.2827 12.5454 89.3599 12.914L90.3895 18.1566L91.2291 22.437C91.2959 22.7697 91.6816 22.9092 91.9459 22.7091L94.0858 21.071C94.2884 20.9184 94.5706 20.9532 94.7231 21.1558L96.0663 22.9173C96.2188 23.1199 96.5009 23.1546 96.7035 23.0021L97.8132 22.1544C98.0158 22.0018 98.0506 21.7197 97.898 21.5171L96.5549 19.7556C96.4023 19.553 96.4371 19.2709 96.6397 19.1184L98.7796 17.4802L98.7713 17.4986Z" stroke="#F8FAF4"/>
<path d="M97.0691 83.8283L76.3001 75.2282M97.0691 83.8283L109.154 78.2421L121.238 72.656M97.0691 83.8283L91.6093 97.4564M18.6421 95.7745L35.519 99.602L43.9574 101.516M86.1496 111.084L69.2728 107.257M86.1496 111.084L98.2702 104.609L110.055 98.4751M86.1496 111.084L91.6093 97.4564M76.3001 75.2282L55.5311 66.6281L42.4571 61.2144M76.3001 75.2282L69.2728 107.257M69.2728 107.257L52.3959 103.429L43.9574 101.516M91.6093 97.4564L117.087 86.8779M91.6093 97.4564L18.1422 75.2815M18.1422 75.2815C17.623 67.5079 16.506 60.1971 13.9932 49.4279L34.7621 58.028L42.4571 61.2144M18.1422 75.2815C18.4482 79.8631 18.5465 84.6055 18.6007 90.3114M42.4571 61.2144L43.9574 101.516" stroke="#F8FAF4" stroke-linecap="round" stroke-linejoin="round"/>
</svg>
