<?xml version="1.0" encoding="utf-8"?>
<!-- Generator: Adobe Illustrator 27.5.0, SVG Export Plug-In . SVG Version: 6.00 Build 0)  -->
<svg version="1.1" xmlns="http://www.w3.org/2000/svg" xmlns:xlink="http://www.w3.org/1999/xlink" x="0px" y="0px"
	 viewBox="0 0 3710 3710" style="enable-background:new 0 0 3710 3710;" xml:space="preserve">
<g id="Background">
	<g>
		<g>
			<rect style="fill:#FFFFFF;" width="3710" height="3710"/>
		</g>
	</g>
</g>
<g id="Illustration">
	<g>
		<path style="fill:#F4F7FA;" d="M3003.27,934.67C2397.609,203.094,963.727,162.204,542.11,742.456
			c-232.309,319.716-135.233,797.635-87.334,1033.442c88.144,433.947,305.497,713.311,352.958,772.569
			c115.162,143.789,394.89,493.053,815.763,572.891c719.128,136.415,1616.437-558.137,1666.151-1341.745
			C3318.306,1327.84,3055.633,997.919,3003.27,934.67z"/>
		<g>
			<g>
				<path style="fill:#FFFFFF;" d="M1766.193,1557.698c54.549,27.695,123.08,2.265,153.068-56.8
					c29.989-59.064,10.079-129.399-44.47-157.094c-2.827-1.435-5.711-2.641-8.605-3.795c10.136-32.682,17.776-65.62,22.9-98.572
					c3.127-0.009,6.265-0.061,9.452-0.345c62.235-5.547,111.629-62.736,110.326-127.736
					c-1.302-65.002-52.81-113.197-115.045-107.651c-3.254,0.292-6.448,0.804-9.625,1.37c-6.501-32.212-15.409-63.678-26.645-94.132
					c2.862-1.676,5.711-3.406,8.494-5.356c53.244-37.302,70.268-110.93,38.023-164.447
					c-32.246-53.517-101.551-66.661-154.797-29.359c-2.728,1.913-5.295,3.977-7.831,6.073
					c-21.031-23.249-44.096-44.794-69.051-64.457c1.754-2.876,3.472-5.791,5.025-8.85c29.989-59.066,69.177-123.585,14.2-150.423
					c-127.176-62.085-181.75-8.937-211.739,50.127c-1.553,3.059-2.892,6.166-4.179,9.279c-30.602-8.543-61.605-14.451-92.786-17.712
					c0.195-3.283,0.347-6.573,0.28-9.905c-1.303-64.997,17.983-100.173-44.487-101.387
					c-136.226-2.648-182.19,56.478-180.886,121.477c0.068,3.397,0.353,6.718,0.69,10.018c-31.218,8.899-61.878,20.276-91.72,34.037
					c-1.418-2.899-2.889-5.781-4.575-8.579c-32.245-53.517-101.551-66.661-154.797-29.355
					c-53.245,37.305-70.268,110.928-38.021,164.445c1.65,2.743,3.46,5.307,5.298,7.836c-23.579,23.582-45.662,49.187-66.068,76.656
					c-2.638-1.655-5.315-3.273-8.14-4.707c-54.549-27.695-123.081-2.266-153.07,56.8c-29.987,59.065-10.078,129.398,44.471,157.094
					c2.825,1.435,5.71,2.641,8.603,3.795c-10.134,32.682-17.776,65.621-22.899,98.572c-3.128,0.009-6.265,0.061-9.452,0.342
					c-62.235,5.551-111.629,62.739-110.327,127.739c1.304,65.002,52.813,113.194,115.047,107.647c3.252-0.29,6.448-0.8,9.625-1.367
					c6.5,32.214,15.407,63.679,26.644,94.133c-2.862,1.675-5.709,3.406-8.494,5.356c-53.244,37.302-70.268,110.928-38.021,164.447
					c32.246,53.517,139.003,78.38,192.247,41.078c2.73-1.913-32.155-15.697-29.619-17.793c21.03,23.249,44.096,44.794,69.052,64.457
					c-1.754,2.876-3.472,5.791-5.025,8.85c-29.989,59.064-10.08,129.399,44.469,157.095c54.549,27.695,123.08,2.265,153.069-56.8
					c1.553-3.06,2.892-6.168,4.179-9.281c30.6,8.544,61.605,14.452,92.784,17.711c-0.195,3.285-0.345,6.575-0.28,9.907
					c1.305,64.998,52.813,113.194,115.047,107.646c62.235-5.547,111.631-62.739,110.326-127.736
					c-0.068-3.397-0.351-6.718-0.688-10.017c31.217-8.899,61.877-20.276,91.719-34.037c1.417,2.899,2.891,5.781,4.575,8.577
					c32.246,53.517,101.549,66.664,154.796,29.357c53.246-37.305,70.268-110.928,38.023-164.45
					c-1.652-2.738-3.462-5.302-5.299-7.831c23.578-23.583,45.662-49.187,66.066-76.656
					C1760.692,1554.645,1763.366,1556.264,1766.193,1557.698z M1086.19,1566.325c-198.054-100.556-270.342-355.92-161.46-570.373
					c108.882-214.453,357.703-306.783,555.756-206.226c198.056,100.558,270.344,355.921,161.46,570.374
					C1533.064,1574.554,1284.245,1666.883,1086.19,1566.325z"/>
				<path style="fill:#FFFFFF;" d="M1898.54,1241.091c62.235-5.549,111.629-62.737,110.327-127.738
					c-1.303-65-52.811-113.197-115.047-107.648c-3.254,0.289-6.448,0.805-9.625,1.369c-6.5-32.214-15.409-63.678-26.645-94.132
					c2.862-1.674,5.711-3.407,8.494-5.357c53.244-37.302,119.118-127.437,81.553-177.363
					c-71.298-94.758-145.083-53.741-198.327-16.441c-2.728,1.913-5.295,3.975-7.831,6.07
					c-21.031-23.247-44.096-44.791-69.053-64.456c1.755-2.876,3.473-5.79,5.026-8.849c16.321-32.146,17.762-67.587,6.983-97.718
					c-51.428,90.517-102.164,181.413-151.992,272.805c158.003,115.781,208.305,343.945,109.544,538.466
					c-83.691,164.838-250.053,257.396-412.494,245.799c-7.247,18.791-14.361,37.686-22.121,56.297
					c-21.057,50.504-44.977,99.97-68.929,149.37c15.063,2.84,30.191,5.077,45.365,6.664c-0.196,3.286-0.347,6.577-0.281,9.907
					c1.303,65,40.767,120.225,153.558,114.242c62.395-3.31,73.118-69.332,71.813-134.332c-0.068-3.395-0.351-6.718-0.688-10.016
					c31.217-8.9,61.877-20.277,91.718-34.037c1.419,2.899,2.892,5.781,4.576,8.577c32.246,53.518,144.112,76.256,197.357,38.951
					c53.247-37.305,27.707-120.522-4.538-174.042c-1.652-2.741-3.462-5.305-5.299-7.836c23.579-23.579,45.662-49.187,66.066-76.653
					c2.64,1.656,5.314,3.274,8.141,4.706c54.547,27.698,123.08,2.265,153.07-56.8c29.988-59.063,10.078-129.4-44.471-157.094
					c-2.827-1.435-5.711-2.641-8.605-3.794c10.136-32.682,17.776-65.622,22.9-98.571
					C1892.214,1241.428,1895.353,1241.375,1898.54,1241.091z"/>
				<path style="fill:#D8DEE8;" d="M1824.864,1564.369c54.547,27.697,123.079,2.266,153.068-56.799
					c29.989-59.066,10.078-129.4-44.471-157.095c-2.826-1.435-5.71-2.641-8.604-3.794c10.136-32.683,17.777-65.622,22.901-98.574
					c3.127-0.009,6.265-0.061,9.452-0.345c62.236-5.548,111.629-62.734,110.326-127.736c-1.302-65-52.81-113.197-115.045-107.649
					c-3.254,0.292-6.448,0.804-9.625,1.37c-6.501-32.212-15.408-63.679-26.646-94.133c2.862-1.674,5.711-3.406,8.494-5.356
					c53.244-37.302,70.267-110.928,38.021-164.445c-32.245-53.518-101.551-66.661-154.795-29.359
					c-2.728,1.913-5.295,3.977-7.831,6.072c-21.032-23.249-44.096-44.793-69.053-64.456c1.754-2.877,3.473-5.791,5.027-8.851
					c29.989-59.065,10.078-129.399-44.471-157.094c-54.549-27.695-123.079-2.266-153.068,56.799c-1.553,3.06-2.892,6.167-4.18,9.281
					c-30.6-8.544-61.605-14.452-92.784-17.712c0.195-3.284,0.347-6.575,0.281-9.905c-1.304-64.999-52.812-113.196-115.047-107.648
					c-62.234,5.548-111.629,62.739-110.326,127.737c0.068,3.398,0.351,6.718,0.689,10.018c-31.219,8.9-61.878,20.277-91.72,34.037
					c-1.418-2.898-2.89-5.779-4.575-8.58c-32.246-53.517-101.551-66.66-154.797-29.354
					c-53.247,37.305-70.268,110.928-38.023,164.447c1.652,2.741,3.461,5.305,5.299,7.836
					c-23.579,23.581-45.662,49.187-66.068,76.655c-2.638-1.655-5.314-3.271-8.14-4.706c-54.549-27.697-123.08-2.266-153.069,56.799
					c-29.988,59.066-10.078,129.398,44.471,157.095c2.826,1.435,5.71,2.641,8.604,3.794c-10.134,32.683-17.777,65.622-22.901,98.572
					c-3.126,0.009-6.264,0.062-9.451,0.344c-62.237,5.551-111.629,62.737-110.327,127.739c1.303,65,52.813,113.194,115.047,107.647
					c3.252-0.29,6.448-0.802,9.625-1.367c6.5,32.212,15.407,63.678,26.644,94.133c-2.862,1.674-5.711,3.405-8.494,5.356
					c-53.244,37.302-70.268,110.928-38.021,164.445c32.246,53.518,101.551,66.661,154.795,29.359
					c2.73-1.913,5.295-3.977,7.833-6.072c21.03,23.247,44.096,44.792,69.051,64.456c-1.754,2.877-3.472,5.791-5.027,8.851
					c-29.988,59.064-10.078,129.398,44.471,157.094c54.549,27.695,123.081,2.266,153.068-56.8c1.555-3.059,2.893-6.166,4.18-9.28
					c30.601,8.544,61.605,14.452,92.784,17.711c-0.195,3.285-0.345,6.575-0.28,9.906c1.305,64.999,52.813,113.194,115.047,107.646
					c62.235-5.546,111.631-62.737,110.326-127.735c-0.068-3.398-0.351-6.718-0.688-10.019c31.218-8.898,61.877-20.276,91.718-34.035
					c1.418,2.897,2.89,5.779,4.576,8.575c32.246,53.518,101.55,66.664,154.795,29.359c53.247-37.305,70.269-110.93,38.024-164.45
					c-1.653-2.738-3.462-5.302-5.301-7.833c23.579-23.581,45.662-49.187,66.068-76.655
					C1819.362,1561.318,1822.036,1562.934,1824.864,1564.369z M1144.86,1572.998c-198.054-100.556-270.342-355.92-161.46-570.373
					c108.882-214.453,357.703-306.783,555.757-206.227c198.054,100.556,270.344,355.92,161.46,570.373
					C1591.735,1581.225,1342.916,1673.554,1144.86,1572.998z"/>
			</g>
			<g>
				<path style="fill:#FFFFFF;" d="M2543.533,2262.483c-106.666-54.157-145.598-191.687-86.958-307.184
					c58.641-115.498,192.647-165.222,299.312-111.066c106.667,54.156,145.598,191.687,86.958,307.184
					C2784.204,2266.913,2650.198,2316.639,2543.533,2262.483z"/>
				<path style="fill:#D8DEE8;" d="M2941.356,2261.43c29.378,14.915,66.287,1.22,82.439-30.591
					c16.151-31.81,5.428-69.69-23.95-84.605c-1.523-0.773-3.075-1.422-4.634-2.044c5.458-17.602,9.573-35.341,12.333-53.087
					c1.684-0.004,3.373-0.033,5.091-0.187c33.517-2.987,60.119-33.787,59.417-68.794c-0.701-35.007-28.442-60.964-61.959-57.976
					c-1.753,0.157-3.474,0.433-5.185,0.737c-3.5-17.349-8.298-34.295-14.349-50.697c1.541-0.902,3.075-1.834,4.574-2.885
					c28.675-20.089,37.843-59.743,20.478-88.565c-17.367-28.822-54.692-35.902-83.368-15.812c-1.47,1.031-2.852,2.141-4.219,3.27
					c-11.326-12.521-23.748-24.123-37.189-34.713c0.944-1.549,1.87-3.119,2.707-4.767c16.152-31.81,5.428-69.69-23.951-84.605
					c-29.377-14.916-66.285-1.22-82.437,30.591c-0.836,1.647-1.557,3.321-2.251,4.998c-16.48-4.602-33.179-7.783-49.97-9.538
					c0.105-1.768,0.186-3.541,0.151-5.335c-0.703-35.005-28.443-60.962-61.96-57.976c-33.519,2.988-60.12,33.789-59.419,68.796
					c0.038,1.828,0.19,3.617,0.372,5.395c-16.813,4.792-33.326,10.92-49.397,18.331c-0.763-1.562-1.556-3.112-2.463-4.62
					c-17.367-28.824-54.692-35.902-83.369-15.81s-37.844,59.743-20.477,88.565c0.889,1.478,1.863,2.858,2.853,4.22
					c-12.699,12.701-24.592,26.49-35.583,41.285c-1.42-0.892-2.861-1.763-4.383-2.536c-29.378-14.916-66.287-1.22-82.437,30.591
					c-16.152,31.811-5.43,69.69,23.948,84.606c1.523,0.773,3.077,1.422,4.634,2.044c-5.458,17.603-9.573,35.341-12.331,53.088
					c-1.685,0.006-3.375,0.033-5.091,0.186c-33.519,2.988-60.12,33.788-59.419,68.795c0.701,35.007,28.443,60.962,61.96,57.974
					c1.752-0.156,3.472-0.43,5.184-0.736c3.5,17.349,8.298,34.295,14.35,50.697c-1.542,0.902-3.076,1.834-4.575,2.885
					c-28.675,20.089-37.844,59.742-20.477,88.565c17.365,28.823,54.691,35.902,83.368,15.812c1.469-1.031,2.852-2.141,4.217-3.27
					c11.327,12.521,23.75,24.123,37.189,34.713c-0.944,1.55-1.87,3.119-2.706,4.767c-16.15,31.811-5.427,69.69,23.95,84.606
					c29.378,14.915,66.287,1.22,82.437-30.591c0.836-1.647,1.557-3.321,2.251-4.998c16.481,4.602,33.179,7.783,49.97,9.538
					c-0.105,1.77-0.186,3.541-0.15,5.335c0.701,35.006,28.442,60.962,61.961,57.976c33.517-2.988,60.12-33.789,59.417-68.794
					c-0.038-1.83-0.19-3.619-0.372-5.396c16.814-4.792,33.326-10.92,49.398-18.331c0.763,1.562,1.557,3.112,2.464,4.618
					c17.367,28.824,54.691,35.903,83.368,15.812s37.844-59.742,20.478-88.566c-0.89-1.476-1.864-2.856-2.855-4.219
					c12.699-12.7,24.593-26.49,35.582-41.285C2938.394,2259.786,2939.836,2260.656,2941.356,2261.43z M2575.131,2266.075
					c-106.666-54.156-145.598-191.686-86.957-307.183c58.639-115.497,192.646-165.223,299.311-111.066
					c106.666,54.156,145.598,191.685,86.958,307.183C2815.802,2270.507,2681.796,2320.233,2575.131,2266.075z"/>
			</g>
		</g>
		<g>
			<g>
				<path style="opacity:0.75;fill:#F4F7FA;" d="M2660.58,1505.217c0-389.768-331.839-705.739-741.183-705.739
					c-409.344,0-741.182,315.971-741.182,705.739c0,236.541,122.224,445.894,309.814,573.944
					c79.584,54.324,127.848,143.863,127.848,240.22v54.007c0,117.345,95.127,212.472,212.473,212.472h182.095
					c117.345,0,212.472-95.127,212.472-212.472v-54.007c0-96.358,48.265-185.896,127.848-240.22
					C2538.355,1951.111,2660.58,1741.758,2660.58,1505.217z"/>
				<linearGradient id="SVGID_1_" gradientUnits="userSpaceOnUse" x1="1903.9585" y1="3024.0334" x2="1917.1221" y2="2918.7253">
					<stop  offset="0.0036" style="stop-color:#26264F"/>
					<stop  offset="1" style="stop-color:#444B8C"/>
				</linearGradient>
				<ellipse style="fill:url(#SVGID_1_);" cx="1919.397" cy="2900.524" rx="164.414" ry="87.046"/>
				
					<linearGradient id="SVGID_00000063591262988030922870000001506682953506010039_" gradientUnits="userSpaceOnUse" x1="1849.8202" y1="2928.054" x2="1981.4557" y2="2691.1101">
					<stop  offset="0.0036" style="stop-color:#26264F"/>
					<stop  offset="1" style="stop-color:#444B8C"/>
				</linearGradient>
				<path style="fill:url(#SVGID_00000063591262988030922870000001506682953506010039_);" d="M1700.951,2745.025v88.893
					c0,30.075,17.115,57.631,44.261,70.577c37.687,17.972,100.344,37.696,191.407,35.362
					c73.875-1.893,122.048-13.958,152.674-26.632c29.587-12.245,48.551-41.502,48.551-73.523v-49.184L1700.951,2745.025z"/>
				
					<linearGradient id="SVGID_00000035488739598090646070000011254200546949647757_" gradientUnits="userSpaceOnUse" x1="1700.9508" y1="2815.7666" x2="2137.8435" y2="2815.7666">
					<stop  offset="0.0036" style="stop-color:#26264F"/>
					<stop  offset="1" style="stop-color:#444B8C"/>
				</linearGradient>
				<path style="opacity:0.3;fill:url(#SVGID_00000035488739598090646070000011254200546949647757_);" d="M1700.951,2822.887
					c6.658,6.473,14.37,11.965,23.032,16.095c42.279,20.163,319.215,65.214,386.016,40.114c8.676-3.259,16.48-7.62,23.315-12.88
					c2.923-8.395,4.53-17.329,4.53-26.514v-49.184l-436.893-45.493V2822.887z"/>
				
					<linearGradient id="SVGID_00000036246149884828183760000004398312460265179270_" gradientUnits="userSpaceOnUse" x1="1862.3508" y1="2863.3064" x2="1992.3412" y2="2613.1987">
					<stop  offset="0.0036" style="stop-color:#26264F"/>
					<stop  offset="1" style="stop-color:#444B8C"/>
				</linearGradient>
				<path style="fill:url(#SVGID_00000036246149884828183760000004398312460265179270_);" d="M1720.347,2684.545
					c-24.606-2.563-46.02,16.737-46.02,41.476v2.519c0,33.74,19.201,64.655,49.656,79.178
					c42.279,20.163,319.215,65.214,386.016,40.114c33.628-12.635,54.469-41.507,54.469-77.43v-2.028
					c0-21.359-16.138-39.264-37.382-41.476L1720.347,2684.545z"/>
				
					<linearGradient id="SVGID_00000158028289587479373890000000975028912078683287_" gradientUnits="userSpaceOnUse" x1="1681.3763" y1="2742.1333" x2="2157.2012" y2="2742.1333">
					<stop  offset="0.0036" style="stop-color:#26264F"/>
					<stop  offset="1" style="stop-color:#444B8C"/>
				</linearGradient>
				<path style="opacity:0.3;fill:url(#SVGID_00000158028289587479373890000000975028912078683287_);" d="M2127.086,2726.899
					l-406.739-42.354c-16.047-1.671-30.693,5.987-38.97,18.357c8.171,19.253,23.049,35.357,42.606,44.684
					c42.279,20.163,331.009,71.088,386.016,45.169c21.412-10.092,38.204-27.125,47.203-47.831
					C2150.498,2735.094,2139.71,2728.214,2127.086,2726.899z"/>
				
					<linearGradient id="SVGID_00000011745846675222543710000015663648344045947273_" gradientUnits="userSpaceOnUse" x1="1674.327" y1="2656.1599" x2="2164.4673" y2="2656.1599">
					<stop  offset="0.0036" style="stop-color:#26264F"/>
					<stop  offset="1" style="stop-color:#444B8C"/>
				</linearGradient>
				<path style="fill:url(#SVGID_00000011745846675222543710000015663648344045947273_);" d="M1704.433,2540.526
					c-16.627,0-30.106,13.479-30.106,30.106v69.62c0,33.74,19.201,64.654,49.656,79.178
					c42.279,20.163,331.009,71.088,386.016,45.167c32.496-15.314,54.469-46.56,54.469-82.484v-111.482
					c0-16.627-13.479-30.106-30.106-30.106H1704.433z"/>
				
					<linearGradient id="SVGID_00000050621602509928212840000012389168386402307492_" gradientUnits="userSpaceOnUse" x1="1907.2246" y1="2619.189" x2="1955.491" y2="2393.2151">
					<stop  offset="0.0036" style="stop-color:#26264F"/>
					<stop  offset="1" style="stop-color:#444B8C"/>
				</linearGradient>
				
					<ellipse style="fill:url(#SVGID_00000050621602509928212840000012389168386402307492_);" cx="1919.397" cy="2562.199" rx="239.008" ry="56.508"/>
				
					<linearGradient id="SVGID_00000008858404729661970930000011627950290527778701_" gradientUnits="userSpaceOnUse" x1="1814.5339" y1="1358.2836" x2="2772.1301" y2="2878.5911">
					<stop  offset="0" style="stop-color:#FCB148"/>
					<stop  offset="0.0521" style="stop-color:#FDBA46"/>
					<stop  offset="0.1424" style="stop-color:#FFC244"/>
					<stop  offset="0.3183" style="stop-color:#FFC444"/>
					<stop  offset="0.4849" style="stop-color:#FDB946"/>
					<stop  offset="0.7754" style="stop-color:#F99C4D"/>
					<stop  offset="0.8658" style="stop-color:#F8924F"/>
					<stop  offset="1" style="stop-color:#F8924F"/>
				</linearGradient>
				<path style="fill:url(#SVGID_00000008858404729661970930000011627950290527778701_);" d="M2660.58,1505.217
					c0-389.768-331.839-705.739-741.183-705.739c-409.344,0-741.182,315.971-741.182,705.739
					c0,236.541,122.224,445.894,309.814,573.944c79.584,54.324,127.848,143.863,127.848,240.22v54.007
					c0,117.345,95.127,212.472,212.473,212.472h182.095c117.345,0,212.472-95.127,212.472-212.472v-54.007
					c0-96.358,48.265-185.896,127.848-240.22C2538.355,1951.111,2660.58,1741.758,2660.58,1505.217z"/>
				<ellipse style="opacity:0.5;fill:#F4F7FA;" cx="1919.397" cy="2517.642" rx="174.888" ry="41.348"/>
				<g>
					
						<linearGradient id="SVGID_00000090273153223555156670000018425038805539444380_" gradientUnits="userSpaceOnUse" x1="1639.593" y1="2528.9023" x2="1834.8524" y2="1958.4827">
						<stop  offset="0.494" style="stop-color:#EBEFF2"/>
						<stop  offset="1" style="stop-color:#FFFFFF"/>
					</linearGradient>
					<path style="fill:url(#SVGID_00000090273153223555156670000018425038805539444380_);" d="M1873.822,2542.91
						c-5.008,0-9.356-3.72-10.012-8.819l-128.659-1000.549c-0.711-5.536,3.2-10.6,8.737-11.31c5.547-0.745,10.6,3.198,11.313,8.734
						l128.659,1000.549c0.71,5.537-3.201,10.6-8.738,11.311C1874.686,2542.885,1874.252,2542.91,1873.822,2542.91z"/>
					
						<linearGradient id="SVGID_00000068669172150875379060000012236190838739601087_" gradientUnits="userSpaceOnUse" x1="1826.2666" y1="2592.8018" x2="2021.5261" y2="2022.3818">
						<stop  offset="0.494" style="stop-color:#EBEFF2"/>
						<stop  offset="1" style="stop-color:#FFFFFF"/>
					</linearGradient>
					<path style="fill:url(#SVGID_00000068669172150875379060000012236190838739601087_);" d="M1953.735,2542.91
						c-0.429,0-0.864-0.025-1.3-0.084c-5.536-0.711-9.448-5.774-8.737-11.311l128.661-1000.549
						c0.713-5.536,5.771-9.484,11.313-8.734c5.537,0.711,9.448,5.774,8.737,11.31l-128.661,1000.549
						C1963.091,2539.19,1958.744,2542.91,1953.735,2542.91z"/>
					
						<linearGradient id="SVGID_00000174590455300130717900000014270045867346726291_" gradientUnits="userSpaceOnUse" x1="1571.5983" y1="2505.6282" x2="1766.8579" y2="1935.208">
						<stop  offset="0.494" style="stop-color:#EBEFF2"/>
						<stop  offset="1" style="stop-color:#FFFFFF"/>
					</linearGradient>
					<path style="fill:url(#SVGID_00000174590455300130717900000014270045867346726291_);" d="M2058.517,1532.733
						c-3.284,0-6.507-1.599-8.448-4.545l-35.509-53.869c-0.365-0.553-0.928-0.874-1.441-0.81c-0.881,0.02-1.253,0.646-1.374,0.849
						l-23.443,39.267c-3.886,6.504-10.696,10.501-18.22,10.689c-7.476,0.242-14.543-3.469-18.759-9.786l-32.19-48.263
						c-0.351-0.523-0.819-0.794-1.391-0.8c-0.684,0.129-1.004,0.242-1.347,0.735l-28.28,40.875
						c-4.083,5.907-10.78,9.44-17.913,9.455h-0.045c-7.131,0-13.84-3.513-17.953-9.411l-40.769-58.404
						c-0.368-0.528-0.885-0.71-1.438-0.765c-0.583,0.025-1.038,0.321-1.359,0.873l-37.211,64.237
						c-2.796,4.827-8.984,6.475-13.81,3.677c-4.831-2.798-6.477-8.982-3.679-13.813l37.211-64.237
						c3.785-6.529,10.514-10.615,18-10.931c7.427-0.38,14.541,3.198,18.863,9.391l40.766,58.404
						c0.354,0.503,0.817,0.765,1.377,0.765h0.002c0.548-0.005,0.997-0.252,1.337-0.74l28.279-40.875
						c4.138-5.976,10.951-9.533,18.141-9.45c7.242,0.064,13.985,3.726,18.036,9.801l32.187,48.258
						c0.363,0.543,0.906,0.997,1.441,0.795c0.876-0.02,1.246-0.642,1.368-0.844l23.443-39.266
						c3.901-6.529,10.735-10.526,18.283-10.694c7.472-0.167,14.573,3.534,18.765,9.895l35.509,53.869
						c3.072,4.658,1.784,10.925-2.877,14C2062.356,1532.196,2060.426,1532.733,2058.517,1532.733z"/>
				</g>
				
					<linearGradient id="SVGID_00000051383370725791018660000011357784772250166458_" gradientUnits="userSpaceOnUse" x1="1848.1381" y1="1015.5932" x2="1657.2665" y2="2588.6355">
					<stop  offset="0" style="stop-color:#FCB148"/>
					<stop  offset="0.0521" style="stop-color:#FDBA46"/>
					<stop  offset="0.1424" style="stop-color:#FFC244"/>
					<stop  offset="0.3183" style="stop-color:#FFC444"/>
					<stop  offset="0.4849" style="stop-color:#FDB946"/>
					<stop  offset="0.7754" style="stop-color:#F99C4D"/>
					<stop  offset="0.8658" style="stop-color:#F8924F"/>
					<stop  offset="1" style="stop-color:#F8924F"/>
				</linearGradient>
				<path style="opacity:0.3;fill:url(#SVGID_00000051383370725791018660000011357784772250166458_);" d="M1932.848,2061.882
					c15.878-272.016,474.446-335.675,472.481-578.601c-1.21-149.616-183.433-260.729-222.344-282.983
					c-286.72-163.988-639.629,25.382-712.512-108.646c-18.147-33.369-9.639-69.695-4.793-90.381
					c7.323-31.265,23.904-60.386,48.501-87.021c-202.289,126.016-335.967,343.611-335.967,590.967
					c0,236.541,122.224,445.895,309.814,573.944c79.585,54.325,127.848,143.864,127.848,240.221v54.007
					c0,117.345,95.128,212.472,212.473,212.472h182.095c117.345,0,212.472-95.126,212.472-212.472v-43.18
					c-25.063,19.207-53.847,32.602-85.41,32.344C2027.987,2361.651,1924.947,2197.244,1932.848,2061.882z"/>
				<path style="opacity:0.44;fill:#F4F7FA;" d="M2569.053,1532.733c31.959,266.872-267.823,615.089-637.802,615.091
					c-341.222,0.002-636.68-282.028-637.801-615.091c-0.979-291.101,227.521-567.03,476.638-595.274
					c164.462-18.646,297.55,75.168,446.676,180.285C2373.714,1228.377,2547.255,1350.705,2569.053,1532.733z"/>
			</g>
			<g>
				<g>
					<g>
						
							<linearGradient id="SVGID_00000112602331460736173620000007834912288953479070_" gradientUnits="userSpaceOnUse" x1="3649.1904" y1="150.045" x2="2806.0093" y2="1616.6012" gradientTransform="matrix(0.9999 0.0163 -0.0163 0.9999 -591.1752 212.0026)">
							<stop  offset="0" style="stop-color:#FFC444"/>
							<stop  offset="0.9964" style="stop-color:#F36F56"/>
						</linearGradient>
						<path style="fill:url(#SVGID_00000112602331460736173620000007834912288953479070_);" d="M2977.875,1400.437
							c-5.26-0.086-11.24-4.449-11.154-9.709l7.582-464.318c0.171-10.503-2.473-18.237-12.976-18.408l-685.762-11.198
							c-5.26-0.086-9.426-6.205-9.34-11.465c0.086-5.26,4.448-11.24,9.709-11.154l685.762,11.198
							c21.008,0.343,35.569,20.39,35.226,41.397l-7.582,464.318C2989.255,1396.357,2983.136,1400.523,2977.875,1400.437z"/>
					</g>
					
						<linearGradient id="SVGID_00000072281258193253068640000004589696304146794163_" gradientUnits="userSpaceOnUse" x1="3556.9153" y1="1463.0192" x2="3611.6646" y2="951.2322" gradientTransform="matrix(0.9999 0.0163 -0.0163 0.9999 -591.1752 212.0026)">
						<stop  offset="0" style="stop-color:#FFC444"/>
						<stop  offset="0.9964" style="stop-color:#F36F56"/>
					</linearGradient>
					<path style="fill:url(#SVGID_00000072281258193253068640000004589696304146794163_);" d="M3008.02,1316.525l-8.872-14.567
						c-3.01-5.52-9.262-8.962-15.549-8.963c-6.287-0.001-12.306,3.429-15.318,8.948l-8.443,14.872
						c-1.962,3.596-3.347,7.608-3.414,11.704l-2.063,126.314c-0.044,2.713,13.729,5.137,28.194,5.373
						c14.466,0.236,28.311-1.737,28.355-4.449l2.068-126.671C3013.05,1324.712,3010.114,1320.365,3008.02,1316.525z"/>
				</g>
				
					<linearGradient id="SVGID_00000097466343192296094260000004730082229568823992_" gradientUnits="userSpaceOnUse" x1="2482.6545" y1="-9166.623" x2="2387.5896" y2="-8457.4111" gradientTransform="matrix(0.9563 0.2925 0.2925 -0.9563 2510.4121 -8294.084)">
					<stop  offset="0" style="stop-color:#AA80F9"/>
					<stop  offset="0.9964" style="stop-color:#6165D7"/>
				</linearGradient>
				<path style="fill:url(#SVGID_00000097466343192296094260000004730082229568823992_);" d="M2041.385,891.866
					c85.908,30.364,169.717,68.414,251.409,114.222l648.231-105.839l30.648,9.377l2.622-8.575l0.904-2.952l-583.753-547.117
					l-790.12,127.474l-0.721,2.362l-2.624,8.573l23.981,7.337L2041.385,891.866z"/>
				
					<linearGradient id="SVGID_00000165943408775904730890000016550969262224084882_" gradientUnits="userSpaceOnUse" x1="2468.7429" y1="41.9901" x2="2344.3184" y2="1623.0975" gradientTransform="matrix(0.9563 0.2925 -0.2925 0.9563 192.9275 -716.5682)">
					<stop  offset="0" style="stop-color:#AA80F9"/>
					<stop  offset="0.9964" style="stop-color:#6165D7"/>
				</linearGradient>
				<path style="fill:url(#SVGID_00000165943408775904730890000016550969262224084882_);" d="M2311.608,1016.804l658.248-107.474
					l-582.338-548.621L1597.909,489.63l417.472,393.301C2117.043,916.858,2215.79,961.461,2311.608,1016.804z"/>
				
					<linearGradient id="SVGID_00000032624427942493048450000013539494222891257730_" gradientUnits="userSpaceOnUse" x1="2237.8381" y1="5631.5298" x2="2416.1394" y2="677.3772" gradientTransform="matrix(0.9563 0.2925 -0.2925 0.9563 192.9275 -716.5682)">
					<stop  offset="0" style="stop-color:#AA80F9"/>
					<stop  offset="0.9964" style="stop-color:#6165D7"/>
				</linearGradient>
				<path style="fill:url(#SVGID_00000032624427942493048450000013539494222891257730_);" d="M2314.264,1018.316
					c76.368,45.609,203.015,128.877,281.347,201.409l107.248-350.579c3.408-11.142,0.519-23.736-7.802-37.519
					c-38.756-63.548-196.288-149.474-395.421-210.391s-377.777-77.833-445.453-46.845c-10.468,4.84-18.304,10.724-22.956,17.816
					c-2.043,2.806-3.542,5.779-4.501,8.915l-67.283,219.945c44.697,6.874,105.689,18.236,176.679,37.726
					C2130.039,912.035,2266.169,989.593,2314.264,1018.316z"/>
				
					<linearGradient id="SVGID_00000088111380146576857060000013897950714665341855_" gradientUnits="userSpaceOnUse" x1="2041.4305" y1="1230.1376" x2="2057.7891" y2="775.6133" gradientTransform="matrix(0.9563 0.2925 -0.2925 0.9563 192.9275 -716.5682)">
					<stop  offset="0" style="stop-color:#AA80F9"/>
					<stop  offset="0.9964" style="stop-color:#6165D7"/>
				</linearGradient>
				<path style="opacity:0.3;fill:url(#SVGID_00000088111380146576857060000013897950714665341855_);" d="M1967.289,867.746
					c-3.092-15.054-3.978-30.631-2.381-46.683c9.703-97.457-76.449-183.547-133.683-228.855c-0.474-0.381-0.951-0.763-1.423-1.144
					l-70.361,230.004C1830.007,831.919,1899.289,847.483,1967.289,867.746z"/>
			</g>
		</g>
		<g>
			
				<linearGradient id="SVGID_00000088103100335577947010000018109026253774154381_" gradientUnits="userSpaceOnUse" x1="2819.7297" y1="2190.3433" x2="2046.7522" y2="3932.9338">
				<stop  offset="0.0036" style="stop-color:#E38DDD"/>
				<stop  offset="1" style="stop-color:#9571F6"/>
			</linearGradient>
			<path style="fill:url(#SVGID_00000088103100335577947010000018109026253774154381_);" d="M2598.552,2457.547v-286.409h-185.783
				v286.409c0,27.895-17.469,52.831-43.719,62.271c-170.89,61.46-294.068,230.107-294.068,385.55
				c0,194.49,192.822,294.613,430.679,294.613s430.679-100.123,430.679-294.613c0-155.442-123.178-324.09-294.068-385.55
				C2616.021,2510.378,2598.552,2485.442,2598.552,2457.547z"/>
			
				<linearGradient id="SVGID_00000124148954989133989630000014897724297588847756_" gradientUnits="userSpaceOnUse" x1="2105.8425" y1="2973.3818" x2="2905.4783" y2="2973.3818">
				<stop  offset="0" style="stop-color:#AA80F9"/>
				<stop  offset="0.9964" style="stop-color:#6165D7"/>
			</linearGradient>
			<path style="fill:url(#SVGID_00000124148954989133989630000014897724297588847756_);" d="M2148.714,2770.709
				c-27.411,37.851-42.872,80.645-42.872,125.967c0,154.296,179.005,279.378,399.818,279.378
				c220.813,0,399.818-125.082,399.818-279.378c0-45.322-15.46-88.115-42.872-125.967H2148.714z"/>
			
				<linearGradient id="SVGID_00000048494183367788890560000008213385178861855661_" gradientUnits="userSpaceOnUse" x1="2492.658" y1="2788.1113" x2="2679.8486" y2="2537.5857">
				<stop  offset="0" style="stop-color:#AA80F9"/>
				<stop  offset="0.9964" style="stop-color:#6165D7"/>
			</linearGradient>
			
				<ellipse style="fill:url(#SVGID_00000048494183367788890560000008213385178861855661_);" cx="2505.66" cy="2770.709" rx="356.788" ry="30.964"/>
			<g style="opacity:0.3;">
				<path style="fill:#FFFFFF;" d="M2542.958,3071.903c-48.101-0.162-147.402-0.495-223.784-74.594
					c-46.227-44.846-103.85-135.909-76.002-211.117c42.243-114.088,247.583-100.987,261.785-195.635
					c6.458-43.039-35.261-50.68-45.038-125.263c-10.781-82.231,34.436-114.886,33.778-190.005
					c-0.236-26.975-6.419-62.235-30.247-104.151h-50.681v286.409c0,27.896-17.469,52.831-43.719,62.271
					c-170.89,61.46-294.068,230.107-294.068,385.55c0,194.49,192.822,294.613,430.679,294.613s430.679-100.123,430.679-294.613
					c0-11.106-0.65-22.28-1.88-33.476C2867.716,2946.475,2728.253,3072.526,2542.958,3071.903z"/>
			</g>
			
				<linearGradient id="SVGID_00000106856608247055214560000006451558803607746950_" gradientUnits="userSpaceOnUse" x1="2535.2603" y1="2110.0374" x2="2439.7769" y2="2325.2942">
				<stop  offset="0.0036" style="stop-color:#E38DDD"/>
				<stop  offset="1" style="stop-color:#9571F6"/>
			</linearGradient>
			<path style="fill:url(#SVGID_00000106856608247055214560000006451558803607746950_);" d="M2590.811,2206.323H2420.51
				c-16.324,0-29.556-13.233-29.556-29.556l0,0c0-16.324,13.232-29.556,29.556-29.556h170.301c16.324,0,29.556,13.233,29.556,29.556
				l0,0C2620.367,2193.091,2607.135,2206.323,2590.811,2206.323z"/>
		</g>
		<g>
			
				<linearGradient id="SVGID_00000164507370853219950070000012855609176057763767_" gradientUnits="userSpaceOnUse" x1="746.9617" y1="2739.3784" x2="2032.4871" y2="2739.3784">
				<stop  offset="0" style="stop-color:#AA80F9"/>
				<stop  offset="0.9964" style="stop-color:#6165D7"/>
			</linearGradient>
			<polygon style="fill:url(#SVGID_00000164507370853219950070000012855609176057763767_);" points="746.962,2679.09 
				1344.276,2653.12 2032.487,2677.235 1353.552,2825.637 			"/>
			<g>
				
					<linearGradient id="SVGID_00000064326394734627102530000017931912620819595951_" gradientUnits="userSpaceOnUse" x1="889.3041" y1="3249.041" x2="994.0957" y2="3010.6909">
					<stop  offset="0" style="stop-color:#FFC444"/>
					<stop  offset="0.9964" style="stop-color:#F36F56"/>
				</linearGradient>
				<path style="fill:url(#SVGID_00000064326394734627102530000017931912620819595951_);" d="M1228.227,3254.682l-483.836-130.219
					c-48.727-13.115-86.585-61.394-86.585-108.213v-0.514c0-46.82,37.858-78.232,86.585-69.636l518.937,84.921L1228.227,3254.682z"
					/>
				<g>
					
						<linearGradient id="SVGID_00000061431917264287782910000015475649263096460450_" gradientUnits="userSpaceOnUse" x1="1162.3176" y1="3112.3232" x2="2033.316" y2="3112.3232">
						<stop  offset="0" style="stop-color:#FF9085"/>
						<stop  offset="1" style="stop-color:#FB6FBB"/>
					</linearGradient>
					<path style="fill:url(#SVGID_00000061431917264287782910000015475649263096460450_);" d="M2033.316,3156.891l-781.776,87.305
						c-48.966,5.468-89.222-28.678-89.222-76.345v-32.336c0-47.667,40.257-89.513,89.222-93.411l781.776-62.228
						C1998.722,3044.277,1990.741,3104.526,2033.316,3156.891z"/>
					
						<linearGradient id="SVGID_00000064338188773970905510000003007487502521529997_" gradientUnits="userSpaceOnUse" x1="1141.2986" y1="3112.7351" x2="2048.6343" y2="3112.7351">
						<stop  offset="0" style="stop-color:#FFC444"/>
						<stop  offset="0.9964" style="stop-color:#F36F56"/>
					</linearGradient>
					<path style="fill:url(#SVGID_00000064338188773970905510000003007487502521529997_);" d="M2040.12,3165.56l-782.03,88.671
						c-63.867,7.242-116.792-37.492-116.792-99.853v-0.685c0-62.361,52.925-117.223,116.792-122.205l782.03-60.994
						c4.705-0.367,8.514,3.551,8.514,8.75c0,5.2-3.809,9.725-8.514,10.108l-782.03,63.67c-51.38,4.183-93.804,48.385-93.804,98.472
						v0.683c0,50.086,42.424,86.17,93.804,80.52l782.03-85.996c4.705-0.517,8.514,3.279,8.514,8.479
						S2044.825,3165.026,2040.12,3165.56z"/>
				</g>
			</g>
			<g>
				
					<linearGradient id="SVGID_00000016794880848385077210000000143419807644514974_" gradientUnits="userSpaceOnUse" x1="1041.4296" y1="2606.356" x2="857.7141" y2="3225.1885">
					<stop  offset="0" style="stop-color:#AA80F9"/>
					<stop  offset="0.9964" style="stop-color:#6165D7"/>
				</linearGradient>
				<path style="fill:url(#SVGID_00000016794880848385077210000000143419807644514974_);" d="M1248.554,3031.545l-504.162-85.446
					c-48.727-8.595-86.585-72.466-86.585-142.766v-0.773c0-70.3,37.858-126.086,86.585-124.276l534.817,19.866L1248.554,3031.545z"
					/>
				<g>
					
						<linearGradient id="SVGID_00000103246508913134957970000016368303226119340719_" gradientUnits="userSpaceOnUse" x1="1162.3176" y1="2851.979" x2="2033.316" y2="2851.979">
						<stop  offset="0" style="stop-color:#FF9085"/>
						<stop  offset="1" style="stop-color:#FB6FBB"/>
					</linearGradient>
					<path style="fill:url(#SVGID_00000103246508913134957970000016368303226119340719_);" d="M2033.316,2956.849l-737.962,55.661
						c-72.781,5.49-133.037-47.987-133.037-119.559v-48.554c0-71.573,60.255-131.236,133.037-133.22l737.962-20.118
						C1998.611,2787.561,1990.853,2877.924,2033.316,2956.849z"/>
					
						<linearGradient id="SVGID_00000019648239070925740730000002194722413791671215_" gradientUnits="userSpaceOnUse" x1="1141.2986" y1="2854.6655" x2="2048.6343" y2="2854.6655">
						<stop  offset="0" style="stop-color:#AA80F9"/>
						<stop  offset="0.9964" style="stop-color:#6165D7"/>
					</linearGradient>
					<path style="fill:url(#SVGID_00000019648239070925740730000002194722413791671215_);" d="M2040.12,2970.494l-782.03,60.994
						c-63.867,4.981-116.792-67.069-116.792-160.705v-1.029c0-93.636,52.925-171.13,116.792-172.717l782.03-19.436
						c4.705-0.117,8.514,6.117,8.514,13.924c0,7.807-3.809,14.25-8.514,14.392l-782.03,23.454
						c-51.38,1.541-93.804,63.997-93.804,139.203v1.026c0,75.205,42.424,133.299,93.804,129.555l782.03-56.976
						c4.705-0.343,8.514,5.709,8.514,13.516C2048.634,2963.501,2044.825,2970.127,2040.12,2970.494z"/>
				</g>
			</g>
			<path style="opacity:0.5;fill:#FFFFFF;" d="M1092.215,2961.092l-107.767-18.833c-25.164-68.686-23.273-131.781,0-207.193
				l107.767,7.661C1070.126,2822.082,1073.47,2893.962,1092.215,2961.092z"/>
		</g>
		<g>
			
				<linearGradient id="SVGID_00000142155992136014058740000005631093458384251836_" gradientUnits="userSpaceOnUse" x1="2282.2173" y1="2979.1516" x2="2275.0818" y2="3120.0779">
				<stop  offset="0" style="stop-color:#FF9085"/>
				<stop  offset="1" style="stop-color:#FB6FBB"/>
			</linearGradient>
			<polygon style="fill:url(#SVGID_00000142155992136014058740000005631093458384251836_);" points="2274.698,3087.323 
				2607.587,3004.056 2624.238,3084.932 2319.486,3225.586 2078.182,3165.979 1932.618,3023.056 			"/>
			
				<linearGradient id="SVGID_00000160186657113040743980000015420394338143082626_" gradientUnits="userSpaceOnUse" x1="2273.3774" y1="3153.7393" x2="2266.2417" y2="3294.6655">
				<stop  offset="0" style="stop-color:#311944"/>
				<stop  offset="1" style="stop-color:#6B3976"/>
			</linearGradient>
			<polygon style="fill:url(#SVGID_00000160186657113040743980000015420394338143082626_);" points="2274.698,3087.323 
				2607.587,3004.056 2624.238,3084.932 2319.486,3225.586 2078.182,3165.979 1932.618,3023.056 			"/>
			
				<linearGradient id="SVGID_00000113336527855853054500000011859195651280723367_" gradientUnits="userSpaceOnUse" x1="2540.0569" y1="2564.5737" x2="2422.6499" y2="3523.0039">
				<stop  offset="0" style="stop-color:#311944"/>
				<stop  offset="1" style="stop-color:#6B3976"/>
			</linearGradient>
			<path style="fill:url(#SVGID_00000113336527855853054500000011859195651280723367_);" d="M2264.233,3199.269
				c66.163-35.471,115.027-71.599,148.196-98.907c65.26-53.731,95.197-94.263,161.265-110.28
				c11.809-2.862,79.081-19.17,100.789,10.703c24.035,33.075-22.693,102.24-28.369,110.642
				c-84.409,124.938-299.358,119.108-366.78,115.056C2274.3,3217.411,2269.267,3208.339,2264.233,3199.269z"/>
			
				<linearGradient id="SVGID_00000037686960029826319810000007479435102977055400_" gradientUnits="userSpaceOnUse" x1="2264.2327" y1="3106.5452" x2="2681.3069" y2="3106.5452">
				<stop  offset="0" style="stop-color:#311944"/>
				<stop  offset="1" style="stop-color:#6B3976"/>
			</linearGradient>
			<path style="opacity:0.3;fill:url(#SVGID_00000037686960029826319810000007479435102977055400_);" d="M2674.483,3000.785
				c-6.344-8.729-16.622-13.441-28.227-15.771c3.862,13.371,4.213,25.919-0.612,36.881c-13.189,29.962-52.247,20.733-79.68,55.895
				c-26.943,34.533-8.292,67.815-32.11,82.059c-27.299,16.325-61.141-21.814-90.383-3.568
				c-19.882,12.405-13.697,35.939-36.866,48.759c-16.012,8.859-31.708,4.67-49.948,2.378c-20.907-2.627-49.55-3.188-85.503,4.322
				c2.726,4.914,5.453,9.829,8.181,14.744c67.421,4.052,282.37,9.881,366.779-115.056
				C2651.79,3103.025,2698.519,3033.861,2674.483,3000.785z"/>
			
				<linearGradient id="SVGID_00000151544924550349939580000017132984125769680551_" gradientUnits="userSpaceOnUse" x1="2382.3386" y1="3267.8616" x2="2302.0645" y2="3167.9651">
				<stop  offset="0" style="stop-color:#311944"/>
				<stop  offset="1" style="stop-color:#6B3976"/>
			</linearGradient>
			<path style="fill:url(#SVGID_00000151544924550349939580000017132984125769680551_);" d="M2314.254,3217.938
				c0,0,12.123-8.693,29.716-2.769c17.591,5.924,45.526,10.705,45.483,19.306c-0.043,8.602-27.992,13.985-47.305,10.45
				C2323.673,3241.543,2309.142,3225.486,2314.254,3217.938z"/>
			<path style="fill:#FFFFFF;" d="M2296.488,3203.256l32.377,10.415c0,0,5.259,8.76-1.839,14.317
				c-7.098,5.556-31.762-6.194-31.762-6.194L2296.488,3203.256z"/>
			
				<linearGradient id="SVGID_00000095316712445240335690000017377322155819957417_" gradientUnits="userSpaceOnUse" x1="2152.2488" y1="2517.0684" x2="2034.8416" y2="3475.4998">
				<stop  offset="0" style="stop-color:#311944"/>
				<stop  offset="1" style="stop-color:#6B3976"/>
			</linearGradient>
			<path style="fill:url(#SVGID_00000095316712445240335690000017377322155819957417_);" d="M1846.467,3054.005
				c-9.56,55.66,110.564,115.871,138.064,129.654c56.045,28.092,161.5,67.748,318.013,52.598
				c2.082-12.487,4.163-24.975,6.244-37.461c-20.676-7.083-51.316-18.596-86.87-36.085c-60.678-29.848-83.718-51.165-167.917-102.07
				c-93.171-56.33-120.311-63.556-148.071-56.584C1882.193,3010.017,1850.909,3028.141,1846.467,3054.005z"/>
			
				<linearGradient id="SVGID_00000178917077684022942210000010932059442443241869_" gradientUnits="userSpaceOnUse" x1="2268.5989" y1="2440.6287" x2="2244.6387" y2="3437.3965">
				<stop  offset="0" style="stop-color:#FFC444"/>
				<stop  offset="0.9964" style="stop-color:#F36F56"/>
			</linearGradient>
			<path style="fill:url(#SVGID_00000178917077684022942210000010932059442443241869_);" d="M1971.635,2948.161
				c-20.305-73.438,13.213-172.531,83.842-220.309c57.65-38.997,125.199-36.467,146.278-35.677
				c23.073,0.865,20.69,3.86,93.321,17.297c100.834,18.657,110.143,14.134,139.475,28.192
				c55.154,26.433,81.917,74.459,86.925,83.804c25.631,47.824,46.49,136.731-2.191,180.209
				c-27.673,24.717-66.469,24.615-88.302,22.299c-1.486-9.811-2.972-19.623-4.459-29.434c4.443-3.441,30.656-24.452,33.894-61.543
				c3.723-42.627-26.074-70.141-29.434-73.139c-10.568,20.401-23.576,51.38-29.434,90.978c-7.563,51.136,0.269,93.185,6.901,117.912
				c-26.667,14.637-70.764,34.499-128.205,40.853c-43.276,4.788-96.858,10.716-131.115-16.055
				c-48.338-37.776-52.425-136.154-4.684-238.548c-17.474,11.705-42.79,32.881-53.292,66.403
				c-1.588,5.069-4.277,15.015-5.352,53.516C2083.873,3044.094,1992.679,3024.264,1971.635,2948.161z"/>
			
				<linearGradient id="SVGID_00000029021132063475682090000011724072361975478175_" gradientUnits="userSpaceOnUse" x1="2097.9434" y1="2960.4727" x2="2391.5503" y2="2960.4727">
				<stop  offset="0" style="stop-color:#FFC444"/>
				<stop  offset="0.9964" style="stop-color:#F36F56"/>
			</linearGradient>
			<path style="opacity:0.3;fill:url(#SVGID_00000029021132063475682090000011724072361975478175_);" d="M2298.977,2999.002
				c-24.324,2.982-30.944,28.237-53.516,26.758c-49.112-3.216-88.531-88.24-67.788-134.682c13.526-30.28,48.787-35.561,46.381-55.3
				c-1.925-15.794-26.397-27.948-46.381-28.542c-31.113-0.923-51.658,26.171-58.868,35.678
				c-16.849,22.219-20.481,46.615-20.862,62.306c12.364-24.255,32.055-40.541,46.504-50.219
				c-47.741,102.394-43.655,200.771,4.684,238.548c34.256,26.77,87.839,20.842,131.115,16.055
				c46.621-5.158,84.448-19.212,111.304-32.15C2365.455,3034.975,2332.22,2994.925,2298.977,2999.002z"/>
			
				<linearGradient id="SVGID_00000081621081760168531130000006703747506571627909_" gradientUnits="userSpaceOnUse" x1="2099.1187" y1="3082.2915" x2="2384.4746" y2="3082.2915">
				<stop  offset="0" style="stop-color:#AA80F9"/>
				<stop  offset="0.9964" style="stop-color:#6165D7"/>
			</linearGradient>
			<polygon style="fill:url(#SVGID_00000081621081760168531130000006703747506571627909_);" points="2383.746,3068.276 
				2099.119,3064.027 2174.806,3100.556 2384.475,3086.833 			"/>
			<path style="fill:#D8DEE8;" d="M2089.075,3071.591v0.001c0,5.327,3.332,10.085,8.338,11.905l90.948,35.654l0.415-24.719
				l-89.657-30.406C2094.089,3062.581,2089.075,3066.357,2089.075,3071.591z"/>
			
				<linearGradient id="SVGID_00000145744876966782386990000015709124631500432796_" gradientUnits="userSpaceOnUse" x1="2095.0647" y1="2436.4578" x2="2071.1047" y2="3433.2266">
				<stop  offset="0" style="stop-color:#FFC444"/>
				<stop  offset="0.9964" style="stop-color:#F36F56"/>
			</linearGradient>
			<path style="fill:url(#SVGID_00000145744876966782386990000015709124631500432796_);" d="M1985.398,2899.227
				c21.964-20.789,75.846-7.695,95.946,22.176c14.797,21.989,2.551,40.083,13.379,67.787c13.265,33.939,63.302,64.624,94.053,74.837
				c-4.813,10.363-3.397,13.047-8.21,23.41c-19.562-2.443-160.961-24.103-195.551-108.058
				C1983.213,2975.004,1961.845,2921.52,1985.398,2899.227z"/>
			<path style="fill:#FFFFFF;" d="M2306.358,2680.048c0,0-23.018,24.891-42.125,27.482c-19.106,2.591-46.719-2.485-51.477,0
				c-4.758,2.484,23.996,12.714,46.801,18.968c22.805,6.256,64.211,18.752,75.658,16.016c11.448-2.737-12.51-17.415-21.997-21.306
				c-9.488-3.892,4.092-23.88,4.092-23.88L2306.358,2680.048z"/>
			<g>
				
					<linearGradient id="SVGID_00000036968102682993795420000014688971787969827512_" gradientUnits="userSpaceOnUse" x1="-2324.1555" y1="978.2274" x2="-2365.7815" y2="872.5048" gradientTransform="matrix(-0.7945 -0.6073 -0.6073 0.7945 992.7459 529.0761)">
					<stop  offset="0" style="stop-color:#311944"/>
					<stop  offset="1" style="stop-color:#6B3976"/>
				</linearGradient>
				<path style="fill:url(#SVGID_00000036968102682993795420000014688971787969827512_);" d="M2340.511,2694.302
					c8.323-2.295,15.926-11.639,15.832-21.321c-0.082-8.33-5.931-14.015-9.432-17.42c-10.144-9.865-27.777-16.04-40.559-9.555
					c-7.575,3.844-11.033,21.289-11.798,24.313c-0.866,3.421,0.47,5.853,0.838,9.228c0.51,4.68,1.257,12.071,2.344,24.306
					c2.14-1.716,4.931-3.728,8.352-5.607c1.316-0.722,6.511-3.506,12.127-4.806
					C2329.472,2690.834,2332.622,2696.478,2340.511,2694.302z"/>
				<path style="fill:#FFFFFF;" d="M2292.959,2690.588c0,0-1.931,17.649,13.375,27.929c13.705,9.203,38.159-18.589,34.609-31.221
					c-1.185-4.214-6.092-9.364-11.598-11.584c-3.251-1.311-5.014-0.898-10.286-3.142c-4.863-2.071-5.662-3.403-7.678-3.315
					c-2.523,0.109-6.076,2.403-10.111,12.927c-0.548-4.438-2.791-7.708-5.678-8.34c-0.461-0.1-1.826-0.181-3.043,0.354
					C2288.149,2676.133,2287.914,2682.753,2292.959,2690.588z"/>
				
					<linearGradient id="SVGID_00000170268198012171918120000016648801892970629789_" gradientUnits="userSpaceOnUse" x1="-2336.8699" y1="983.2933" x2="-2378.541" y2="877.456" gradientTransform="matrix(-0.7945 -0.6073 -0.6073 0.7945 992.7459 529.0761)">
					<stop  offset="0" style="stop-color:#311944"/>
					<stop  offset="1" style="stop-color:#6B3976"/>
				</linearGradient>
				<path style="fill:url(#SVGID_00000170268198012171918120000016648801892970629789_);" d="M2312.139,2667.048
					c0.267,0.955-3.466,1.822-6.169,5.034c-5.249,6.237-4.684,19.009,1.471,24.797c3.64,3.422,6.55,1.882,13.59,6.209
					c4.359,2.679,7.32,5.776,9.076,7.864c-3.404,8.651-10.764,14.223-18.013,13.852c-7.807-0.399-12.664-7.545-14.695-10.534
					c-1.358-2-5.72-8.394-4.648-16.086c1.116-8.015,6.817-8.972,6.079-15.545c-0.373-3.315-2.152-5.997-1.666-11.486
					c0.132-1.49,0.387-2.703,0.585-3.498C2303.865,2666.682,2311.751,2665.667,2312.139,2667.048z"/>
				<path style="fill:#FFFFFF;" d="M2323.35,2709.926c0,0-3.953-0.7-8.612-4.725c-0.227-0.195-0.541-0.326-0.666-0.228
					c-0.468,0.375,1.061,4.854,4.563,6.262c2.487,1,5.568,0.291,5.672-0.414C2324.351,2710.524,2323.866,2710.195,2323.35,2709.926z
					"/>
			</g>
			<g>
				<path style="fill:#D8DEE8;" d="M2196.325,2920.998l-20.063,182.674c-0.692,6.303,8.132,15.693,14.466,15.393l294.321-18.069
					c4.835-0.229,8.862-3.789,9.682-8.56l36.94-176.429c1.103-6.421-10.439-13.052-16.952-12.87l-308.428,8.672
					C2201.142,2911.954,2196.888,2915.876,2196.325,2920.998z"/>
				<path style="fill:#FFFFFF;" d="M2203.052,2926.324l-20.062,182.674c-0.693,6.303,4.41,11.733,10.744,11.434l298.043-14.109
					c4.836-0.229,8.862-3.789,9.681-8.56l30.449-177.237c1.103-6.421-3.948-12.245-10.46-12.062l-308.429,8.672
					C2207.868,2917.281,2203.615,2921.203,2203.052,2926.324z"/>
			</g>
			
				<linearGradient id="SVGID_00000070811311629442163110000011769171492296769208_" gradientUnits="userSpaceOnUse" x1="2182.9265" y1="3018.4761" x2="2505.6604" y2="3018.4761">
				<stop  offset="0.494" style="stop-color:#EBEFF2"/>
				<stop  offset="1" style="stop-color:#FFFFFF"/>
			</linearGradient>
			<path style="fill:url(#SVGID_00000070811311629442163110000011769171492296769208_);" d="M2378.063,3063.519
				c-26.024-11.03-16.839-32.063-47.57-58.273c-40.541-34.576-81.863-19.582-96.33-46.381c-4.505-8.347-6.656-21.335,1.19-42.356
				l-22.334,0.628c-5.151,0.145-9.405,4.067-9.967,9.188l-20.063,182.674c-0.692,6.302,4.412,11.733,10.745,11.434l298.043-14.109
				c4.836-0.229,8.862-3.788,9.681-8.56l4.202-24.457c-9.043-5.032-19.85-9.608-32.458-12.166
				C2429.478,3052.271,2408.023,3076.216,2378.063,3063.519z"/>
		</g>
		<g>
			<g>
				
					<linearGradient id="SVGID_00000109718739894530473730000015065336241108463291_" gradientUnits="userSpaceOnUse" x1="-3937.8601" y1="2171.2222" x2="-3452.3767" y2="2500.9841" gradientTransform="matrix(1 -0.0079 0.0079 1 5322.3379 -13.8809)">
					<stop  offset="0" style="stop-color:#311944"/>
					<stop  offset="1" style="stop-color:#6B3976"/>
				</linearGradient>
				<path style="fill:url(#SVGID_00000109718739894530473730000015065336241108463291_);" d="M1442.117,2345.08
					c-9.181-5.849-0.995-23.147-0.797-60.155c0.241-44.955-11.655-53.946-2.336-71.577c13.583-25.698,51.469-30.46,61.087-31.67
					c28.311-3.56,33.415,6.968,83.334,13.615c45.304,6.032,52.134-1.17,70.202,9.129c27.347,15.587,20.778,37.26,44.021,57.158
					c40.356,34.55,92.279-3.284,123.921,24.285c28.933,25.208,22.932,89.431,0.167,130.699
					c-54.522,98.84-227.374,106.188-251.88,64.186c-13.175-22.58,21.698-50.559,3.358-88.353
					c-11.382-23.456-34.163-30.359-57.08-55.748c-2.759-3.056-7.055-6.75-12.693-7.305c-6.767-0.669-12.166,3.51-14.77,5.344
					C1474.98,2344.317,1451.136,2350.825,1442.117,2345.08z"/>
				
					<linearGradient id="SVGID_00000183958530966702790970000017724757655392013750_" gradientUnits="userSpaceOnUse" x1="4082.9478" y1="2411.7717" x2="4332.2593" y2="2411.7717" gradientTransform="matrix(-1 0.0079 0.0079 1 5552.2173 -16.1609)">
					<stop  offset="0.0036" style="stop-color:#E38DDD"/>
					<stop  offset="1" style="stop-color:#9571F6"/>
				</linearGradient>
				<path style="fill:url(#SVGID_00000183958530966702790970000017724757655392013750_);" d="M1483.475,2302.763
					c-13.111-11.755-59.383,11.47-89.927,42.051c-35.884,35.927-32.875,64.801-64.086,109.328
					c-15.515,22.136-42.181,51.981-89.64,78.317c3.441,8.408,6.882,16.818,10.322,25.225c23.057,1.203,68.295,0.029,110.286-27.868
					c29.169-19.379,44.055-44.868,72.636-95.056C1461.748,2384.39,1499.864,2317.46,1483.475,2302.763z"/>
				
					<linearGradient id="SVGID_00000155866842379744861770000000879288009568018108_" gradientUnits="userSpaceOnUse" x1="-4182.9648" y1="455.7432" x2="-4103.8774" y2="455.7432" gradientTransform="matrix(0.8266 -0.5628 0.5628 0.8266 4388.9624 272.5293)">
					<stop  offset="0" style="stop-color:#311944"/>
					<stop  offset="1" style="stop-color:#6B3976"/>
				</linearGradient>
				<path style="fill:url(#SVGID_00000155866842379744861770000000879288009568018108_);" d="M1200.085,2995.04l14.552-31.567
					c2.068-4.485,5.316-8.322,9.398-11.101l7.29-4.963c0,0,17.517-0.604,20.331,10.387c0.697,13.979-26.232,45.444-43.322,57.989
					c-2.837,2.082-6.884,4.86-9.367,3.467C1194.761,3016.892,1197.597,3004.005,1200.085,2995.04z"/>
				
					<linearGradient id="SVGID_00000014616900170199265020000017433263862660123779_" gradientUnits="userSpaceOnUse" x1="-4136.5352" y1="3001.9939" x2="-4007.4761" y2="2614.8159" gradientTransform="matrix(1 -0.0079 0.0079 1 5322.3379 -13.8809)">
					<stop  offset="0" style="stop-color:#FFC444"/>
					<stop  offset="0.9964" style="stop-color:#F36F56"/>
				</linearGradient>
				<path style="fill:url(#SVGID_00000014616900170199265020000017433263862660123779_);" d="M1227.389,2930.339
					c2.438,13.471-0.455,20.527-3.602,24.491c-2.215,2.79-20.13,32.865-12.636,37.639c3.382,2.154,26.217-26.666,28.419-31.072
					c1.994-3.989,3.319-3.062,3.35-13.889c0.02-7.129,1.425-12.877,2.536-16.475
					C1239.433,2930.802,1233.411,2930.572,1227.389,2930.339z"/>
				
					<linearGradient id="SVGID_00000028316669433683834560000013000660569439107508_" gradientUnits="userSpaceOnUse" x1="-4158.1782" y1="2824.1995" x2="-4113.8555" y2="2824.1995" gradientTransform="matrix(1 -0.0079 0.0079 1 5322.3379 -13.8809)">
					<stop  offset="0" style="stop-color:#311944"/>
					<stop  offset="1" style="stop-color:#6B3976"/>
				</linearGradient>
				<path style="fill:url(#SVGID_00000028316669433683834560000013000660569439107508_);" d="M1200.327,2823.642
					c0,0-16.228,19.679-13.392,41.089c2.836,21.408,31.28-10.151,35.195-20.771c3.917-10.62,8.47-25.744,8.47-25.744
					S1210.38,2805.859,1200.327,2823.642z"/>
				
					<linearGradient id="SVGID_00000095324324657269159450000015888476035353345929_" gradientUnits="userSpaceOnUse" x1="-4183.8691" y1="2945.9063" x2="-4111.4922" y2="2728.7739" gradientTransform="matrix(1 -0.0079 0.0079 1 5322.3379 -13.8809)">
					<stop  offset="0" style="stop-color:#FFC444"/>
					<stop  offset="0.9964" style="stop-color:#F36F56"/>
				</linearGradient>
				<path style="fill:url(#SVGID_00000095324324657269159450000015888476035353345929_);" d="M1206.334,2793.006
					c0,0,4.625,22.74-3.756,34.827c-4.175,6.02-9.829,11.144-8.116,16.004c1.148,3.257,5.428,5.57,9.035,5.17
					c6.905-0.764,10.652-11.39,13.295-18.885c3.903-11.069,5.941-34.706,5.941-34.706L1206.334,2793.006z"/>
				
					<linearGradient id="SVGID_00000023270767791934819600000015076130549381076924_" gradientUnits="userSpaceOnUse" x1="-9267.7393" y1="5608.4795" x2="-8915.0957" y2="5408.8203" gradientTransform="matrix(1 -0.0079 0.0079 1 5322.3379 -13.8809)">
					<stop  offset="0" style="stop-color:#311944"/>
					<stop  offset="1" style="stop-color:#6B3976"/>
				</linearGradient>
				<path style="fill:url(#SVGID_00000023270767791934819600000015076130549381076924_);" d="M1219.544,2812.101
					c-5.054-1.794-10.106-3.59-15.159-5.386c-8.002-17.891-17.829-47.303-14.91-83.17c7.509-92.239,92.371-141.759,101.801-147.062
					c23.319,11.47,46.976,27.723,47.993,48.442c1.276,26.009-34.058,40.043-67.073,78.351
					C1252.376,2726.27,1231.277,2760.466,1219.544,2812.101z"/>
				
					<linearGradient id="SVGID_00000049910056208983551160000014580813234481525124_" gradientUnits="userSpaceOnUse" x1="4110.8169" y1="2467.217" x2="4201.5742" y2="2853.5833" gradientTransform="matrix(-1 0.0079 0.0079 1 5552.2173 -16.1609)">
					<stop  offset="0" style="stop-color:#311944"/>
					<stop  offset="1" style="stop-color:#6B3976"/>
				</linearGradient>
				<path style="fill:url(#SVGID_00000049910056208983551160000014580813234481525124_);" d="M1225.997,2940.894
					c-17.163-64.898-13.331-117.999-8.772-148.607c6.892-46.263,20.909-140.367,83.382-175.912
					c13.642-7.762,33.177-14.771,56.883-36.238c19.797-17.927,32.322-36.714,39.863-49.94
					c83.726-25.284,161.21-15.922,195.724,28.815c3.987,5.17,13.958,16.371,16.001,32.99c4.611,37.495-31.906,82.97-73.209,92.733
					c-52.493,12.409-40.787-12.887-87.237,5.448c-12.993,5.129-74.408,7.499-96.31,32.582
					c-27.862,31.907-35.613,42.982-41.499,54.728c-17.527,34.978-30.823,60.802-32.528,94.146
					c-0.397,7.768-0.546,23.456-9.506,40.446c-6.878,13.042-16.271,21.776-23.268,27.181
					C1239.013,2939.808,1232.505,2940.352,1225.997,2940.894z"/>
				
					<linearGradient id="SVGID_00000002370167661875260010000006034455263722356362_" gradientUnits="userSpaceOnUse" x1="-4018.4509" y1="2949.9773" x2="-3941.6892" y2="2707.0393" gradientTransform="matrix(1 -0.0079 0.0079 1 5322.3379 -13.8809)">
					<stop  offset="0" style="stop-color:#311944"/>
					<stop  offset="1" style="stop-color:#6B3976"/>
				</linearGradient>
				<path style="opacity:0.3;fill:url(#SVGID_00000002370167661875260010000006034455263722356362_);" d="M1609.079,2592.001
					c-2.043-16.618-12.014-27.82-16.001-32.99c-34.514-44.737-111.999-54.099-195.724-28.815
					c-7.542,13.226-20.066,32.014-39.863,49.94c-23.707,21.467-43.242,28.476-56.884,36.238
					c-38.148,21.705-58.21,65.24-69.634,106.39c17.218-27.167,32.083-34.471,43.631-34.692
					c16.527-0.314,24.026,13.759,43.747,11.673c21.079-2.229,25.764-19.709,42.848-21.85c5.114-0.64,67.561,6.295,75.158,10.261
					c10.01-10.649-38.66-23.16-30.366-26.433c46.449-18.335,77.387,35.42,129.88,23.011
					C1577.174,2674.971,1613.691,2629.497,1609.079,2592.001z"/>
				
					<linearGradient id="SVGID_00000031897523009804540430000010913647175203733176_" gradientUnits="userSpaceOnUse" x1="-9252.0615" y1="5642.3359" x2="-8899.2383" y2="5442.5757" gradientTransform="matrix(1 -0.0079 0.0079 1 5322.3379 -13.8809)">
					<stop  offset="0" style="stop-color:#311944"/>
					<stop  offset="1" style="stop-color:#6B3976"/>
				</linearGradient>
				<path style="fill:url(#SVGID_00000031897523009804540430000010913647175203733176_);" d="M1267.139,2645.729
					c9.494-0.58,24.119-0.988,41.777,0.615c83.801,7.61,70.432,34.282,139.718,43.84c16.39,2.262,133.606,8.129,157.383-15.495
					c26.817-26.644,18.583-82.533-6.371-102.839c-10.561-8.594-20.947-8.27-88.136-7.129c-25.303,0.43-50.609,0.712-75.91,1.236
					c-107.105,2.215-127.649-5.041-146.998,12.831C1279.574,2587.124,1266.42,2604.981,1267.139,2645.729z"/>
				<g>
					<g>
						
							<linearGradient id="SVGID_00000052814541690480537980000015041995987489651088_" gradientUnits="userSpaceOnUse" x1="3913.3372" y1="2472.2207" x2="4204.4238" y2="2472.2207" gradientTransform="matrix(-1 0.0079 0.0079 1 5552.2173 -16.1609)">
							<stop  offset="0.0036" style="stop-color:#E38DDD"/>
							<stop  offset="1" style="stop-color:#9571F6"/>
						</linearGradient>
						<path style="fill:url(#SVGID_00000052814541690480537980000015041995987489651088_);" d="M1490.543,2300.255
							c0,0,84.355-25.328,121.926,16.529c6.898,7.684,12.384,17.819,16.473,37.432c20.837,99.947-54.496,160.676-24.208,213.25
							c12.027,20.877,32.967,27.031,48.112,64.603c2.563,6.36,11.837,29.368,3.553,36.707c-7.295,6.463-19.484-6.963-40.924-4.181
							c-22.705,2.946-27.876,20.446-43.187,18.026c-9.983-1.579-14.348-10.057-29.204-31.161
							c-21.507-30.553-32.26-45.83-39.924-51.156c-30.239-21.012-53.26,6.886-87.717-13.885
							c-12.475-7.521-58.941-66.377-45.28-50.217l0,0c31.891-40.438,39.112-73.65,39.699-96.706
							c0.643-25.278-6.732-36.705-0.529-66.629c0,0,6.921-33.388,32.619-62.216
							C1445.64,2306.512,1450.042,2302.198,1490.543,2300.255z"/>
					</g>
				</g>
				<g>
					
						<linearGradient id="SVGID_00000136374901319052851080000003318776268410024606_" gradientUnits="userSpaceOnUse" x1="5945.1099" y1="1553.7639" x2="5950.6104" y2="1407.2563" gradientTransform="matrix(-0.9826 0.1862 0.1862 0.9826 7068.4922 -272.1374)">
						<stop  offset="0" style="stop-color:#FFC444"/>
						<stop  offset="0.9964" style="stop-color:#F36F56"/>
					</linearGradient>
					<path style="fill:url(#SVGID_00000136374901319052851080000003318776268410024606_);" d="M1517.254,2245.198
						c-1.102,5.359-6.703,34.111,5.1,41.404c2.558,1.582,7.457,2.46,17.257,4.216c6.415,1.149,11.795,1.843,15.59,2.266
						c-0.51,4.818-2.068,12.665-7.568,19.836c-15.413,20.102-46.679,15.181-51.137,14.405c-15.728-2.735-31.222-7.465-34.978-10.401
						c-5.719-4.471-10.214-7.824-12.885-11.245c6.055-2.985,18.264-10.828,26.479-13.428c6.139-1.942,11.905-3.339,17.153-4.351
						c0.819-5.552,1.64-11.104,2.46-16.656C1502.236,2262.562,1509.745,2253.881,1517.254,2245.198z"/>
					
						<linearGradient id="SVGID_00000101070246987842298220000013833664529211583887_" gradientUnits="userSpaceOnUse" x1="5942.8477" y1="1425.6758" x2="5940.812" y2="1589.7002" gradientTransform="matrix(-0.9826 0.1862 0.1862 0.9826 7068.4922 -272.1374)">
						<stop  offset="0" style="stop-color:#FFC444"/>
						<stop  offset="0.9964" style="stop-color:#F36F56"/>
					</linearGradient>
					<path style="fill:url(#SVGID_00000101070246987842298220000013833664529211583887_);" d="M1515.417,2257.198
						c0,0-1.691,18.205-19.348,21.551c-15.81,2.996-28.032-35.168-20.008-45.129c2.677-3.323,9.324-6.516,15.11-6.396
						c4.069,0.086,17.852,5.21,19.879,18.943c2.714-2.905,6.117-3.76,7.808-2.567c2.145,1.514,1.038,5.977,0.786,6.987
						C1518.774,2254.091,1516.509,2256.276,1515.417,2257.198z"/>
				</g>
				
					<linearGradient id="SVGID_00000084495397749128604600000013132778152263226519_" gradientUnits="userSpaceOnUse" x1="3913.3372" y1="2539.0198" x2="4204.4238" y2="2539.0198" gradientTransform="matrix(-1 0.0079 0.0079 1 5552.2173 -16.1609)">
					<stop  offset="0" style="stop-color:#AA80F9"/>
					<stop  offset="0.9964" style="stop-color:#6165D7"/>
				</linearGradient>
				<path style="opacity:0.15;fill:url(#SVGID_00000084495397749128604600000013132778152263226519_);" d="M1370.161,2536.2
					c3.837-4.866,7.299-9.62,10.453-14.272c17.717-6.093,33.068-8.43,45.461-9.13c27.953-1.578,43.318,4.88,62.263-6.726
					c21.503-13.174,17.536-31.192,38.307-41.433c21.861-10.777,37.473,1.082,58.553-2.956c12.732-2.439,28.194-11.089,43.845-36.086
					c-11.661,59.979-46.617,103.147-24.31,141.868c12.027,20.877,32.967,27.031,48.112,64.603
					c2.563,6.36,11.837,29.368,3.553,36.707c-7.296,6.463-19.484-6.963-40.924-4.181c-22.705,2.946-27.876,20.446-43.187,18.026
					c-9.983-1.579-14.348-10.057-29.204-31.161c-21.507-30.553-32.26-45.83-39.924-51.156c-30.239-21.012-53.26,6.886-87.717-13.885
					C1402.967,2578.896,1356.5,2520.04,1370.161,2536.2z"/>
			</g>
			<g>
				
					<linearGradient id="SVGID_00000160160968460774708470000011956775722174525321_" gradientUnits="userSpaceOnUse" x1="-0.2372" y1="2544.3708" x2="208.8648" y2="2544.3708" gradientTransform="matrix(1 -0.0079 0.0079 1 1319.9047 17.8823)">
					<stop  offset="0" style="stop-color:#444B8C"/>
					<stop  offset="0.9964" style="stop-color:#3E4177"/>
				</linearGradient>
				<path style="fill:url(#SVGID_00000160160968460774708470000011956775722174525321_);" d="M1344.766,2546.677l191.382,7.791
					c2.634,0.108,5.047,1.499,6.458,3.726l5.361,8.454c2.668,4.208-0.454,9.688-5.436,9.538l-202.702-6.111L1344.766,2546.677z"/>
				
					<linearGradient id="SVGID_00000091704381877130937670000011537655756146160574_" gradientUnits="userSpaceOnUse" x1="-200.9289" y1="2488.6162" x2="86.0842" y2="2488.6162" gradientTransform="matrix(1 -0.0079 0.0079 1 1319.9047 17.8823)">
					<stop  offset="0" style="stop-color:#444B8C"/>
					<stop  offset="0.9964" style="stop-color:#3E4177"/>
				</linearGradient>
				<path style="fill:url(#SVGID_00000091704381877130937670000011537655756146160574_);" d="M1144.944,2441.723l197.673,2.262
					c5.849,0.067,11.229,3.21,14.159,8.271l69.397,119.873l-208.801-6.66c-5.731-0.183-10.984-3.243-13.968-8.14l-64.251-105.433
					C1136.418,2447.408,1139.688,2441.663,1144.944,2441.723z"/>
				
					<linearGradient id="SVGID_00000105401473905833147750000005279599974700841370_" gradientUnits="userSpaceOnUse" x1="-140.729" y1="2490.4866" x2="86.0842" y2="2490.4866" gradientTransform="matrix(1 -0.0079 0.0079 1 1319.9047 17.8823)">
					<stop  offset="0" style="stop-color:#444B8C"/>
					<stop  offset="0.9964" style="stop-color:#3E4177"/>
				</linearGradient>
				<path style="fill:url(#SVGID_00000105401473905833147750000005279599974700841370_);" d="M1356.777,2452.257
					c-2.931-5.063-8.311-8.206-14.16-8.272l-4.332-0.049c-0.595,6.385-2.506,12.237-6.373,16.979
					c-12.07,14.807-32.39,5.894-47.358,21.582c-16.442,17.232-0.966,37.468-15.661,53.502
					c-15.469,16.875-40.804,3.436-69.719,14.387l4.231,6.943c2.983,4.897,8.236,7.958,13.967,8.14l208.801,6.66L1356.777,2452.257z"
					/>
			</g>
			<g>
				
					<linearGradient id="SVGID_00000069398869585574201120000006321313869199698356_" gradientUnits="userSpaceOnUse" x1="3849.429" y1="2416.0867" x2="4059.1865" y2="2416.0867" gradientTransform="matrix(-1 0.0079 0.0079 1 5552.2173 -16.1609)">
					<stop  offset="0.0036" style="stop-color:#E38DDD"/>
					<stop  offset="1" style="stop-color:#9571F6"/>
				</linearGradient>
				<path style="fill:url(#SVGID_00000069398869585574201120000006321313869199698356_);" d="M1520.434,2538.89
					c-2.542-6.556-5.085-13.11-7.627-19.667c27.46-7.764,65.433-19.214,104.362-33.473c6.097-2.234,13.339-4.997,15.667-11.45
					c6.532-18.101-36.054-36.466-52.865-75.742c-15.547-36.325-7.55-86.97,10.11-93.086
					c36.749-12.725,168.707,148.886,122.582,217.821C1686.591,2562.26,1605.309,2569.077,1520.434,2538.89z"/>
			</g>
			
				<linearGradient id="SVGID_00000069357943442885483420000010811461838260283520_" gradientUnits="userSpaceOnUse" x1="4101.606" y1="2503.7454" x2="4032.0984" y2="2569.2473" gradientTransform="matrix(-1 0.0079 0.0079 1 5552.2173 -16.1609)">
				<stop  offset="0" style="stop-color:#FFC444"/>
				<stop  offset="0.9964" style="stop-color:#F36F56"/>
			</linearGradient>
			<path style="fill:url(#SVGID_00000069357943442885483420000010811461838260283520_);" d="M1512.807,2519.223
				c-17.35-9.041-37.956,0.531-39.284,1.172c-3.782,1.822-9.281,5.058-14.819,10.804c-0.625,0.866-8.036,11.31-5.28,14.616
				c2.21,2.649,10.667,0.372,20.803-6.044c4.265-0.633,10.616-1.233,18.237-0.592c13.993,1.179,20.434,5.546,25.48,1.692
				c3.695-2.821,4.915-8.733,3.542-13.111C1520.013,2523.059,1515.744,2520.754,1512.807,2519.223z"/>
		</g>
	</g>
</g>
</svg>
